<svg width="205" height="80" viewBox="0 0 205 80" fill="none" xmlns="http://www.w3.org/2000/svg"><path d="M162.85 53.896V15.368c0-4.181 1.493-7.723 4.48-10.624 3.072-2.987 6.699-4.48 10.88-4.48h11.52c4.181 0 7.765 1.493 10.752 4.48 2.987 2.901 4.48 6.443 4.48 10.624v38.528c0 5.035-2.219 9.216-6.656 12.544 4.437 3.328 6.656 7.595 6.656 12.8H189.73v-4.736c0-1.621-.512-2.944-1.536-3.968S185.847 69 184.226 69h-6.016c-4.181 0-7.808-1.45-10.88-4.352-2.987-2.987-4.48-6.57-4.48-10.752zm21.376 9.984h5.504V10.888c0-2.475-.981-4.096-2.944-4.864-1.877-.853-3.797-.853-5.76 0-1.877.768-2.816 2.39-2.816 4.864v47.488c0 3.67 2.005 5.504 6.016 5.504zM142.047.264h15.36V69h-15.36V.264zM136.323 69h-15.36V35.08c0-4.523-.853-9.173-2.56-13.952-1.707-4.864-4.48-8.405-8.32-10.624V69h-15.36V.392c4.693-.768 9.515.213 14.464 2.944 4.949 2.73 8.875 5.93 11.776 9.6V.264h15.36V69zM63.027 58.376c0 1.621.512 2.944 1.536 3.968s2.304 1.536 3.84 1.536h6.144V42.504h15.232V69H63.027c-4.181 0-7.808-1.45-10.88-4.352-2.987-2.987-4.48-6.57-4.48-10.752V15.368c0-4.181 1.493-7.723 4.48-10.624 3.072-2.987 6.699-4.48 10.88-4.48h26.752v17.408H74.547V5.384h-6.144c-1.536 0-2.816.512-3.84 1.536s-1.536 2.347-1.536 3.968v13.696h19.2v11.264c-1.707-2.304-4.053-4.139-7.04-5.504-2.987-1.45-5.76-1.963-8.32-1.536-2.56.427-3.84 2.219-3.84 5.376v24.192zM16.176 63.88h11.52V42.248h15.232V69H.944v-9.216c0-4.181 1.323-8.704 3.968-13.568 2.73-4.864 5.845-9.856 9.344-14.976 6.656-9.13 11.05-17.75 13.184-25.856H16.176v12.288H.944V.264h41.984v3.2c0 4.181-1.365 8.704-4.096 13.568-2.645 4.864-5.717 9.813-9.216 14.848-3.499 5.12-6.613 10.155-9.344 15.104-2.73 4.95-4.096 9.557-4.096 13.824v3.072z" fill="#ED0C32"/></svg>