<svg width="273" height="48" viewBox="0 0 273 48" fill="none" xmlns="http://www.w3.org/2000/svg" filter="blur(10px)"><path fill-rule="evenodd" clip-rule="evenodd" d="M260.73 22.678h-19.935c.247-2.497 2.01-4.995 5.193-4.995h23.508v-4.8H244.91c-9.794 0-13.813 7.446-13.813 14.595h27.43c.929 0 3.133.196 3.133 2.448 0 2.254-1.909 2.45-5.191 2.548h-28.605v-19.59h-8.424v19.59h-16.064c-4.85 0-5.386-3.575-5.386-5.484V12.883h-15.332l-12.491 8.326-11.264-8.326h-32.862c-9.795 0-15.673 6.808-16.505 12.734h6.774c-2.709 1.826-4.627 4.3-5.669 6.848l-19.128.009c-4.849 0-5.388-3.575-5.388-5.484V12.883H77.7v13.372c0 9.208 6.465 11.02 9.6 11.02h67.344l12.587-8.425 11.413 8.425h13.274l-17.681-13.029 14.545-9.747v12.882c0 8.324 8.131 9.894 10.384 9.894h61.467c3.037 0 11.413-.393 11.413-7.054 0-6.66-6.175-7.543-11.317-7.543zm-107.455 9.796h-31.69c.244-2.498 2.987-4.996 6.171-4.996h18.71v-4.8h-25.567c.244-2.497 2.987-4.995 6.171-4.995h21.355V14.89l14.792 10.971-9.942 6.612zM33.598 48c11.061 0 20.871-3.86 26.952-9.811l-5.48.026c-5.18 4.356-12.753 7.098-21.336 7.098-16.012 0-28.512-9.54-28.512-21.312 0-13.577 12.5-21.313 28.512-21.313 1.018.003 1.832.472 1.222 1.356-3.327 4.005-12.8 16.894-14.527 19.687-3.409 5.505-3.327 12.285 5.023 12.76h35.116c1.794 0 2.25-.84 2.897-1.718A17.93 17.93 0 0067.006 24c-.005-10.117-7.124-17.699-17.6-21.429l-1.621 2.422c8.704 3.212 14.46 9.701 14.46 19.007 0 1.616-.237 3.19-.685 4.702-.39 1.314-1.15 2.425-2.59 2.425H30.94c-3.59 0-2.202-3.704-.873-5.498 1.929-3.457 12.491-17.853 15.034-20.535.648-.984 2.465-3.021-.04-3.802C41.488.445 37.626 0 33.598 0 15.147 0 .199 9.474.189 24 .18 38.663 15.147 48 33.599 48z" fill="#000"/></svg>