<svg width="161" height="48" viewBox="0 0 161 48" fill="none" xmlns="http://www.w3.org/2000/svg" filter="blur(10px)"><g clip-path="url(#clip0_80_13)"><path d="M24.047 0c-13.255 0-24 10.745-24 24s10.745 24 24 24 24-10.745 24-24c0-13.254-10.745-24-24-24zm11.006 34.614a1.495 1.495 0 01-2.057.498c-5.636-3.445-12.73-4.223-21.084-2.314a1.495 1.495 0 11-.665-2.916c9.142-2.09 16.984-1.19 23.31 2.675.705.433.928 1.353.496 2.058zm2.937-6.534a1.872 1.872 0 01-2.573.617c-6.45-3.965-16.285-5.114-23.915-2.797a1.874 1.874 0 01-2.336-1.247 1.874 1.874 0 011.248-2.334c8.716-2.644 19.552-1.363 26.96 3.19a1.87 1.87 0 01.616 2.572zm.253-6.804C30.506 16.68 17.746 16.259 10.36 18.5a2.244 2.244 0 11-1.303-4.296c8.477-2.573 22.57-2.076 31.476 3.21a2.245 2.245 0 01-2.291 3.861zm27.1.88c-4.144-.988-4.882-1.682-4.882-3.14 0-1.376 1.296-2.302 3.224-2.302 1.868 0 3.721.703 5.664 2.152a.27.27 0 00.384-.061l2.023-2.852a.272.272 0 00-.052-.37c-2.311-1.854-4.915-2.756-7.958-2.756-4.474 0-7.6 2.685-7.6 6.526 0 4.12 2.697 5.579 7.355 6.705 3.966.913 4.635 1.678 4.635 3.046 0 1.516-1.353 2.458-3.531 2.458-2.419 0-4.392-.814-6.599-2.726a.284.284 0 00-.199-.064.269.269 0 00-.186.095l-2.269 2.7a.27.27 0 00.027.377c2.568 2.292 5.726 3.503 9.134 3.503 4.822 0 7.937-2.635 7.937-6.712.009-3.442-2.052-5.348-7.099-6.575l-.008-.004zm18.014-4.087c-2.09 0-3.803.823-5.217 2.51V18.68a.272.272 0 00-.27-.271h-3.711a.272.272 0 00-.272.271v21.094c0 .15.122.272.272.272h3.71c.15 0 .271-.122.271-.272v-6.658c1.414 1.586 3.128 2.361 5.218 2.361 3.882 0 7.813-2.989 7.813-8.703.006-5.715-3.926-8.705-7.81-8.705h-.004zm3.5 8.705c0 2.91-1.793 4.94-4.359 4.94-2.537 0-4.451-2.122-4.451-4.94 0-2.817 1.914-4.94 4.451-4.94 2.525 0 4.36 2.077 4.36 4.94h-.001zm14.389-8.705c-5 0-8.918 3.85-8.918 8.768 0 4.863 3.89 8.673 8.857 8.673 5.019 0 8.948-3.838 8.948-8.736 0-4.88-3.903-8.704-8.887-8.704zm0 13.675c-2.66 0-4.665-2.138-4.665-4.971 0-2.846 1.936-4.91 4.604-4.91 2.677 0 4.696 2.137 4.696 4.972 0 2.845-1.949 4.909-4.634 4.909h-.001zm19.566-13.335h-4.083v-4.175a.271.271 0 00-.271-.272h-3.71a.272.272 0 00-.272.272v4.175h-1.784a.271.271 0 00-.27.271v3.19c0 .149.121.271.27.271h1.784v8.252c0 3.334 1.66 5.025 4.933 5.025 1.331 0 2.435-.275 3.476-.865a.271.271 0 00.137-.236v-3.036a.272.272 0 00-.394-.244 4.672 4.672 0 01-2.178.526c-1.19 0-1.721-.54-1.721-1.752v-7.668h4.083a.27.27 0 00.27-.272v-3.189a.262.262 0 00-.266-.272l-.004-.002zm14.226.016v-.513c0-1.508.579-2.18 1.876-2.18.773 0 1.395.153 2.09.385a.272.272 0 00.357-.259v-3.126a.272.272 0 00-.192-.26c-.735-.22-1.676-.444-3.084-.444-3.427 0-5.238 1.93-5.238 5.58v.784h-1.783a.272.272 0 00-.272.272v3.205c0 .15.122.272.272.272h1.783v12.727c0 .15.12.272.27.272h3.711a.273.273 0 00.272-.272V22.142h3.464l5.307 12.724c-.603 1.337-1.195 1.603-2.004 1.603-.654 0-1.342-.195-2.046-.58a.278.278 0 00-.216-.02.272.272 0 00-.16.146l-1.258 2.759a.27.27 0 00.117.35c1.313.712 2.498 1.015 3.963 1.015 2.739 0 4.254-1.276 5.589-4.71l6.437-16.633a.273.273 0 00-.252-.37h-3.863a.272.272 0 00-.257.182l-3.957 11.302-4.334-11.31a.27.27 0 00-.253-.174h-6.34l.001-.001zm-8.248-.017h-3.71a.272.272 0 00-.272.272v16.188c0 .15.122.272.272.272h3.71c.15 0 .272-.122.272-.272V18.682a.285.285 0 00-.02-.105.282.282 0 00-.059-.088.281.281 0 00-.193-.08zm-1.834-7.37a2.661 2.661 0 10-.005 5.322 2.661 2.661 0 00.006-5.322h-.001zm32.505 12.575a2.6 2.6 0 01-2.611-2.611 2.624 2.624 0 012.625-2.625 2.6 2.6 0 012.611 2.61 2.626 2.626 0 01-2.625 2.626zm.014-4.976c-1.337 0-2.349 1.063-2.349 2.365 0 1.301 1.005 2.35 2.336 2.35 1.337 0 2.35-1.062 2.35-2.365 0-1.301-1.006-2.35-2.336-2.35h-.001zm.579 2.619l.739 1.034h-.623l-.665-.95h-.572v.95h-.521v-2.741h1.222c.637 0 1.056.325 1.056.874.003.45-.258.724-.633.833h-.003zm-.441-1.237h-.68v.867h.68c.339 0 .542-.166.542-.434 0-.282-.204-.433-.542-.433z" fill="#2EBD59"/></g><defs><clipPath id="clip0_80_13"><path fill="#fff" transform="translate(.047)" d="M0 0h160.039v48H0z"/></clipPath></defs></svg>