<svg width="197" height="48" viewBox="0 0 197 48" fill="none" xmlns="http://www.w3.org/2000/svg" filter="blur(10px)"><path d="M139.991 18.7c-2.869 0-4.917.98-5.922 2.836l-.54 1.005v-3.357h-4.669V39.59h4.911V27.45c0-2.9 1.576-4.565 4.323-4.565 2.619 0 4.12 1.62 4.12 4.444v12.262h4.913V26.453c0-4.859-2.667-7.753-7.136-7.753zm-23.816 0c-5.795 0-9.384 3.616-9.384 9.436v2.865c0 5.597 3.631 9.073 9.476 9.073 3.91 0 6.65-1.432 8.374-4.379l-3.044-1.751c-1.274 1.7-3.31 2.752-5.328 2.752-2.959 0-4.726-1.826-4.726-4.888v-.81h13.707v-3.385c0-5.422-3.559-8.913-9.071-8.913h-.004zm4.606 8.998h-9.254v-.49c0-3.36 1.649-5.213 4.644-5.213 2.884 0 4.606 1.826 4.606 4.888l.004.815zm75.118-11.874v-3.903h-16.987v3.903h5.955V35.68h-5.955v3.903h16.987V35.68h-5.958V15.824h5.958zM67.097 11.358c-7.586 0-12.303 4.727-12.303 12.34v4.117c0 7.611 4.715 12.34 12.303 12.34 7.589 0 12.303-4.729 12.303-12.34v-4.117c-.002-7.621-4.723-12.34-12.303-12.34zm7.228 16.738c0 5.055-2.634 7.954-7.228 7.954-4.594 0-7.225-2.899-7.225-7.954v-4.681c0-5.055 2.635-7.954 7.227-7.954 4.592 0 7.228 2.9 7.228 7.954l-.002 4.681zm20.5-9.396c-2.577 0-4.808 1.068-5.972 2.855l-.527.813v-3.184h-4.671v27.428h4.912v-9.935l.526.78c1.105 1.64 3.263 2.617 5.774 2.617 4.236 0 8.508-2.767 8.508-8.952v-3.47c0-4.456-2.633-8.952-8.55-8.952zm3.637 12.182c0 3.289-1.918 5.332-5.004 5.332-2.878 0-4.886-2.16-4.886-5.25v-3.07c0-3.128 2.025-5.33 4.927-5.33 3.064 0 4.968 2.042 4.968 5.33l-.005 2.988zm62.241-18.96l-9.912 27.669h4.99l1.898-5.931h11.394l.019.058 1.877 5.873h4.988l-9.928-27.67-5.326.002zm-1.806 17.836l4.471-13.988 4.425 13.988h-8.896zM45.189 19.647a11.944 11.944 0 00-1.026-9.812A12.095 12.095 0 0031.15 4.04 11.947 11.947 0 0022.14.02a12.082 12.082 0 00-11.526 8.37 11.951 11.951 0 00-7.984 5.795 12.095 12.095 0 001.487 14.168 11.95 11.95 0 001.026 9.8 12.095 12.095 0 0013.022 5.808 11.951 11.951 0 009 4.02 12.083 12.083 0 0011.526-8.37 11.95 11.95 0 007.983-5.795 12.078 12.078 0 00-1.485-14.17zM27.166 44.854a8.952 8.952 0 01-5.752-2.085c.071-.04.209-.109.288-.16l9.55-5.515a1.55 1.55 0 00.785-1.357V22.27l4.035 2.33a.14.14 0 01.08.112v11.146a8.996 8.996 0 01-8.986 8.996zM7.858 36.609a8.967 8.967 0 01-1.074-6.023c.07.044.196.12.283.17l9.553 5.515a1.551 1.551 0 001.568 0l11.655-6.74v4.659a.14.14 0 01-.056.125l-9.655 5.572a8.996 8.996 0 01-12.274-3.289v.01zM5.355 15.755a8.95 8.95 0 014.678-3.94v11.352a1.553 1.553 0 00.784 1.357l11.657 6.732-4.05 2.337a.142.142 0 01-.136.013l-9.653-5.574a8.994 8.994 0 01-3.288-12.277h.008zm33.157 7.716L26.855 16.74l4.03-2.332a.144.144 0 01.136-.012l9.653 5.574a8.988 8.988 0 01-1.389 16.215v-11.35a1.552 1.552 0 00-.78-1.364h.007zm4.018-6.047a8.9 8.9 0 00-.284-.17l-9.552-5.515a1.551 1.551 0 00-1.569 0L19.47 18.47v-4.657a.153.153 0 01.058-.125l9.653-5.572a8.988 8.988 0 0113.346 9.31l.004-.001zm-25.26 8.308l-4.037-2.33a.151.151 0 01-.078-.112V12.144a8.985 8.985 0 0114.737-6.911c-.07.04-.198.108-.288.16l-9.55 5.514a1.553 1.553 0 00-.784 1.358v13.467zm2.191-4.728l5.193-2.998 5.19 2.998v5.993l-5.192 3-5.193-3 .002-5.993z" fill="#000"/></svg>