<svg width="169" height="48" viewBox="0 0 169 48" fill="none" xmlns="http://www.w3.org/2000/svg" filter="blur(10px)"><g clip-path="url(#clip0_80_18)"><path fill-rule="evenodd" clip-rule="evenodd" d="M20.498 1.8c-.198-.115-.354-.205-.6-.205-4.363 0-6.713 5.707-7.887 9.063l3.692-1.007c1.007-4.7 3.02-6.88 5.035-7.72a4.423 4.423 0 01-.24-.132zm1.918 5.502c0-1.847-.336-3.021-.671-4.028-1.51.67-3.189 2.181-4.196 5.706l4.867-1.343v-.335zm1.51-.336l2.182-.671c-.503-1.679-1.51-3.19-2.685-3.525.336 1.007.504 2.182.504 3.692v.504zm12.756 1.678c.168 0 .335.168.335.336 0 .336 5.035 34.573 5.035 34.573l-14.433 3.19L.934 41.706S4.29 15.19 4.458 14.35l.009-.062c.16-1.119.183-1.286 1.502-1.616.385-.128.76-.257 1.127-.383 1.069-.367 2.069-.71 3.068-.96C11.171 7.47 14.024-.083 20.067.085c.839 0 1.846.335 2.517 1.342h.168c2.517 0 4.028 2.182 4.867 4.532.84-.336 1.343-.504 1.343-.504.033 0 .08-.006.137-.014.225-.033.601-.086.87.182.335.168 2.853 2.686 2.853 2.686s3.524.335 3.86.335zM20.905 22.07l1.847-5.37s-1.175-.84-4.028-.672c-6.21 0-9.399 4.196-9.399 8.56 0 2.918 1.637 4.252 3.074 5.424 1.126.917 2.129 1.735 2.129 3.135 0 .84-.504 1.846-1.846 1.846-2.014 0-4.364-2.014-4.364-2.014l-1.175 4.028s2.35 2.853 6.881 2.853c3.86 0 6.714-2.853 6.714-7.384 0-3.476-2.367-5.209-4.216-6.563-1.187-.869-2.162-1.582-2.162-2.5 0-.504.168-2.182 3.021-2.182 2.014 0 3.524.839 3.524.839z" fill="#8DB849"/><path fill-rule="evenodd" clip-rule="evenodd" d="M19.899 1.595c.245 0 .401.09.599.204.072.042.15.087.24.132-2.014.84-4.028 3.02-5.035 7.72l-3.692 1.007c1.174-3.356 3.524-9.063 7.888-9.063zm1.846 1.679c.335 1.007.671 2.181.671 4.028v.335L17.55 8.98c1.007-3.525 2.685-5.035 4.196-5.706zm4.363 3.02l-2.181.672v-.504c0-1.51-.168-2.685-.504-3.692 1.175.336 2.182 1.846 2.685 3.525zm10.91 2.686a.361.361 0 00-.336-.336c-.243 0-2.157-.176-3.195-.273 1.03.097 2.906.273 3.027.273.168 0 .503.168.503.336zm5.034 34.573l-14.433 3.19L.934 41.706S4.29 15.19 4.458 14.35l.009-.062c.16-1.119.183-1.286 1.502-1.616.385-.128.76-.257 1.127-.383 1.069-.367 2.069-.71 3.068-.96C11.171 7.47 14.024-.083 20.067.085c.839 0 1.846.335 2.517 1.342h.168c2.517 0 4.028 2.182 4.867 4.532.84-.336 1.343-.504 1.343-.504.033 0 .08-.006.137-.014.155-.023.381-.055.595.015h-.061l-2.014 41.286 14.433-3.189zm-19.3-26.854l-1.846 5.371s-1.51-.84-3.525-.84c-2.853 0-3.02 1.68-3.02 2.183 0 .918.973 1.631 2.16 2.5 1.85 1.354 4.217 3.087 4.217 6.563 0 4.531-2.853 7.384-6.714 7.384-4.531 0-6.88-2.853-6.88-2.853l1.174-4.028s2.35 2.014 4.364 2.014c1.342 0 1.846-1.007 1.846-1.846 0-1.4-1.003-2.218-2.129-3.135-1.437-1.172-3.074-2.506-3.074-5.425 0-4.363 3.189-8.559 9.399-8.559 2.853-.168 4.028.671 4.028.671z" fill="#8DB849"/><path opacity=".8" d="M36.514 8.644c-.168 0-3.692-.336-3.692-.336s-2.518-2.517-2.854-2.685c-.167-.168-.167-.168-.335-.168l-2.014 41.287 14.434-3.189S37.017 9.315 37.017 8.98c0-.168-.336-.336-.504-.336z" fill="#5A863E"/><path d="M59.004 26.603c-1.51-.84-2.182-1.51-2.182-2.35 0-1.175 1.007-1.846 2.685-1.846 1.846 0 3.525.84 3.525.84l1.342-4.029s-1.175-1.007-4.699-1.007c-5.035 0-8.392 2.854-8.392 6.882 0 2.35 1.679 4.027 3.693 5.202 1.678 1.007 2.35 1.679 2.35 2.686s-.84 2.014-2.518 2.014c-2.35 0-4.7-1.175-4.7-1.175l-1.342 4.028s2.014 1.342 5.538 1.342c5.035 0 8.728-2.517 8.728-7.049 0-2.517-1.847-4.363-4.028-5.538zm20.307-8.56c-2.517 0-4.531 1.175-6.042 3.021l2.182-11.412h-5.706l-5.539 29.035h5.707l1.846-9.902c.671-3.692 2.685-6.042 4.531-6.042 1.343 0 1.846.839 1.846 2.182 0 .839 0 1.678-.167 2.517l-2.182 11.413h5.706l2.182-11.748c.168-1.175.336-2.686.336-3.693 0-3.357-1.679-5.37-4.7-5.37zM93.913 34.66c-2.014 0-2.686-1.678-2.686-3.692 0-3.19 1.679-8.56 4.7-8.56 2.014 0 2.685 1.678 2.685 3.357 0 3.692-1.678 8.895-4.7 8.895zm2.853-16.615c-6.881 0-11.413 6.21-11.413 13.09 0 4.364 2.686 7.889 7.888 7.889 6.714 0 11.245-6.042 11.245-13.091 0-4.028-2.35-7.888-7.72-7.888zm16.783 16.783c-1.51 0-2.35-.84-2.35-.84l1.007-5.37c.672-3.524 2.518-5.874 4.532-5.874 1.678 0 2.35 1.678 2.35 3.189-.168 3.692-2.35 8.895-5.539 8.895zm5.539-16.783c-3.861 0-6.042 3.356-6.042 3.356l.335-3.02h-5.035c-.168 2.013-.671 5.202-1.175 7.552l-4.028 20.81h5.707l1.51-8.39h.168s1.175.67 3.357.67c6.713 0 11.077-6.88 11.077-13.762 0-3.692-1.679-7.216-5.874-7.216zm13.93-8.056c-1.847 0-3.189 1.51-3.189 3.356 0 1.679 1.007 2.853 2.685 2.853 1.846 0 3.357-1.174 3.357-3.356 0-1.679-1.175-2.853-2.853-2.853zm-7.888 28.699h5.706l3.86-20.14h-5.706l-3.86 20.14zm24-20.14h-4.028l.167-1.007c.336-2.014 1.511-3.692 3.357-3.692 1.007 0 1.846.335 1.846.335l1.175-4.531s-1.007-.504-3.021-.504c-2.014 0-4.028.504-5.538 1.847-2.014 1.678-2.854 4.028-3.357 6.377l-.168 1.007h-2.685l-.839 4.364h2.685l-3.021 15.944h5.706l3.021-15.944h3.86l.84-4.196zm13.594 0s-3.525 8.895-5.203 13.762c-.168-1.51-1.343-13.762-1.343-13.762h-6.041l3.356 18.462c0 .335 0 .67-.168 1.007-.671 1.342-1.846 2.517-3.021 3.356-1.007.84-2.349 1.343-3.188 1.678l1.51 4.868c1.175-.168 3.524-1.175 5.538-3.021 2.518-2.35 5.035-6.21 7.385-11.245l6.881-14.937-5.706-.168z" fill="#1A1919"/></g><defs><clipPath id="clip0_80_18"><path fill="#fff" transform="translate(.934)" d="M0 0h167.497v48H0z"/></clipPath></defs></svg>