<svg width="198" height="48" viewBox="0 0 198 48" fill="none" xmlns="http://www.w3.org/2000/svg" filter="blur(10px)"><path d="M187.628 35.242l.067.001c3.966 0 6.758-2.748 6.788-6.68.015-1.948-.548-3.73-1.584-5.018-1.096-1.364-2.63-2.09-4.437-2.105h-.036c-2.439 0-4.704 1.85-6.924 5.658l-.176.304-.114-.331c-.56-1.632-1.06-2.991-1.358-3.805a20.454 20.454 0 01-.324-.905c-.106-.412-.458-.667-.92-.667-.283 0-.585.096-.87.277-.283.18-.441.4-.497.694l-.015.044c-2.222 6.93-4.053 10.294-5.606 10.294a.685.685 0 01-.533-.222c-.407-.45-.307-1.518-.169-2.997.101-1.087.217-2.317.169-3.623-.091-2.51-1.465-4.017-3.672-4.033-2.806-.001-4.625 2.988-5.462 4.769l-.25.53-.056-.585c-.209-2.204-.949-4.837-3.284-4.854-2.725 0-4.8 3.197-6.066 5.88l-.34.719.034-.794c.15-3.578.273-5.691.367-6.277.092-.588.044-.983-.149-1.21-.182-.21-.526-.289-1.03-.257-.872.055-1.318.586-1.989 2.365-1.104 2.922-3.909 9.721-6.149 9.721-.445-.003-.797-.154-1.054-.45-.94-1.077-.564-3.989-.044-8.018l.039-.304c.247-1.908-.173-2.315-1.209-2.506-.104-.02-.21-.03-.315-.03-.828 0-1.215.792-1.987 2.994-1.376 3.92-3.144 8.04-5.212 8.04-.076 0-.15-.005-.227-.017-1.096-.187-1.072-1.812-1.041-3.872.015-1.114.034-2.377-.138-3.517-.309-2.045-1.514-3.322-3.146-3.335-3.256 0-5.452 4.17-6.474 6.656l-.231.563-.077-.604a55.635 55.635 0 01-.395-4.807l-.003-.06.037-.047c6.094-7.672 8.829-13.209 8.866-17.952.023-3.03-1.375-4.85-3.74-4.869-1.729 0-5.841 1.44-7.27 14.783a77.203 77.203 0 00-.432 7.54l-.001.05-.028.04c-2.789 4.035-8.74 10.978-14.566 10.978-5.264 0-9.464-4.26-9.464-11.777 0-10.078 7.133-16.266 12.501-16.266h.045c1.167.009 2.167.335 2.893.942.753.631 1.148 1.515 1.14 2.557-.01 1.391-.464 2.107-.902 2.797-.112.178-.225.355-.328.542-.103.19-.198.463-.06.698.141.24.501.392.941.395 1.277 0 3.21-1.85 3.231-4.637.022-2.917-2.435-5.922-6.819-5.922-6.634 0-15.57 7.288-15.57 19.1 0 8.355 5.24 14.13 12.336 14.13 5.036 0 10.017-3.606 14.429-9.628l.27-.365.019.453c.094 2.205.254 3.941.37 5.21.076.815.13 1.405.128 1.73-.005.711.11 1.207.357 1.51.245.304.635.447 1.226.451.991 0 1.189-.675 1.582-2.342l.112-.475c.488-2.02 2.289-8.611 4.998-8.611.442.004.783.135 1.026.392.598.634.533 1.936.457 3.445-.048.941-.096 1.913-.002 2.86.255 2.557 1.359 3.807 3.374 3.822 2.07 0 4.23-2.229 5.37-4.3l.215-.391.084.439c.21 1.109 1.151 4.748 4.097 4.748 2.67 0 4.96-2.811 7.471-8.598l.328-.755-.02.824c-.053 2.192-.172 4.87-.173 6.94-.001 1.601.161 2.212.901 2.212l.168.008c.71 0 1.192-.424 1.433-1.262 1.889-6.584 3.521-9.65 5.139-9.65 1.584.012 1.732 2.908 1.86 8.026l.008.359c.039 1.79.103 2.582 1.215 2.59.844 0 1.054-.663 1.49-2.295.084-.31.174-.652.281-1.02 1.525-5.293 2.79-7.452 4.364-7.452 1.348.01 1.423 1.4 1.448 1.856.051.978-.049 2.002-.146 2.99-.091.919-.184 1.87-.149 2.752.083 2.07 1.215 3.218 3.191 3.233 2.564 0 4.879-2.999 6.906-8.911l.14-.412.161.405c.368.93.847 2.188 1.29 3.689l.017.057-.024.054c-1.963 4.359-3.348 9.213-3.368 11.807-.026 3.416 1.519 5.636 3.938 5.655h.042c1.315 0 4.382-.529 4.442-5.417.024-2.003-.45-4.836-1.406-8.421l-.11-.41.353.234c1.225.811 2.602 1.245 3.987 1.256zm-66.089-16.579c.054-1.225.158-2.417.304-3.545.949-7.269 2.93-12.344 4.819-12.344h.008c.901.007 1.351.688 1.342 2.023-.026 3.282-2.105 7.98-6.18 13.964l-.318.469.025-.567zm60.227 26.13c-.301.4-.719.604-1.243.604-.602-.006-1.055-.215-1.362-.626-.862-1.152-.619-3.86.787-8.773.168-.587.35-1.177.543-1.755l.164-.49.143.496c1.638 5.672 1.964 9.22.968 10.544zm.51-14.532l-.03-.054-.06-.189.028-.056c1.868-3.85 4.009-6.056 5.871-6.056h.02c2.103.016 3.557 1.909 3.537 4.601-.014 1.797-.806 2.832-1.468 3.384-.755.63-1.76.99-2.759.99-2.461-.02-4.151-1.436-5.139-2.62zM63.123 34.606c2.884-.23 5.171-4.153 6.02-5.829l.22-.432.083.477c.408 2.357 1.69 6.317 5.7 6.349h.034c1.734 0 3.702-1.062 5.692-3.069l.146-.147.106.177c1.339 2.24 3.135 3.43 5.047 3.332 2.816-.147 4.524-2.141 4.675-3.527.038-.354-.055-.686-.257-.91-.253-.283-.62-.315-.89-.056l-.13.122c-.655.629-1.876 1.801-3.207 1.87-1.629.08-2.834-.894-3.612-2.904l-.032-.084.054-.072c4.48-5.859 7.624-14.8 7.313-20.796-.143-2.775-.95-6.084-3.98-6.084l-.227.006c-1.161.06-2.217.613-3.138 1.644-2.813 3.146-4.284 10.89-3.75 19.73.11 1.836.43 3.553.948 5.1l.029.087-.06.07c-1.661 1.942-3.302 3.012-4.618 3.012-3.166 0-3.06-5.31-2.81-9.712.055-.95.135-1.554-.146-1.898-.2-.246-.537-.368-1.026-.372h-.057c-1.127 0-1.363.232-1.94 1.904-1.2 3.474-3.567 9.305-5.949 9.305-.66-.006-1.164-.232-1.509-.671-1.155-1.475-.278-5.152.427-8.109.127-.531.248-1.041.352-1.514.154-.7.107-1.212-.14-1.521-.25-.309-.745-.434-1.4-.382-1.02.082-1.672.509-1.987 2.449l-.063.403-.237-.287c-.446-.658-1.314-1.441-2.926-1.441a5.57 5.57 0 00-.44.017c-1.72.142-3.678 1.34-5.112 3.13-1.674 2.088-2.474 4.731-2.25 7.444.01.143.031.28.052.418l.011.075-.051.057c-1.002 1.09-2.022 1.645-3.033 1.645-1.56-.012-2.456-1.172-2.456-3.104 0-3.251 2.204-13.054 2.204-16.603 0-3.776-1.683-5.832-4.605-5.855h-.044c-4.268 0-7.593 4.842-10.775 14.804-.303.956-.596 1.915-.88 2.877l-.447 1.498.131-1.557c.288-3.34.49-6.686.604-10.036.158-4.814-.492-7.912-1.99-9.471-.808-.841-1.877-1.256-3.268-1.266h-.036c-5.221 0-7.723 8.806-9.544 15.02-.55 1.875-1.633 6.107-2.357 9l.429-.697c.321-3.643 1.252-12.766 1.19-17.716-.065-5.31-1.833-7.69-5.733-7.72H7.43c-2.083 0-3.528 1.036-4.374 1.904C1.7 6.084.853 8.121.9 9.88c.03 1.07.685 2.022 1.183 2.022.324 0 .503-.433.58-.69 1.208-3.989 2.769-5.928 4.772-5.928.831.006 1.45.25 1.913.749 1.566 1.68 1.28 6.214.764 14.448-.167 2.653-.355 5.66-.514 9.08-.027.564-.06 1.128-.099 1.691-.152 2.375-.273 4.252.628 4.391 1.172.183 1.935-.293 2.326-1.453.579-1.72 1.877-6.425 4.39-15.022 2.41-8.249 4.231-11.25 6.561-11.25 2.692 0 2.893 4.622 2.4 14.375-.106 2.068-.247 4.41-.355 6.958-.015.358-.031.706-.049 1.04-.103 2.11-.185 3.775.418 4.413.188.199.444.297.782.299 1.167 0 1.518-1.023 2.099-2.719.103-.299.212-.618.333-.953 3.999-11.03 6.955-20.6 10.923-20.6 1.19 0 2.116.968 2.116 2.853 0 4.352-2.128 12.761-2.128 17.026 0 1.527.44 2.898 1.27 3.862.853.99 2.045 1.517 3.45 1.529h.03c1.328 0 2.71-.645 4.112-1.917l.132-.12.105.143c.923 1.24 2.412 1.907 4.02 1.784 2.467-.192 4.536-2.388 5.306-4.46l.15-.404.15.405c.573 1.536 1.81 3.388 4.455 3.174zm22.725-28.82l.042-.002c.282 0 .53.142.735.421.98 1.324.994 6.156-.69 11.654-.963 3.142-2.257 6.11-3.742 8.583l-.237.393-.061-.455c-.175-1.33-.261-2.714-.322-3.892-.43-8.31 2.085-16.589 4.275-16.703zM58.484 25.207c-.863 3.473-2.518 7.665-5.502 7.905l-.243.01c-1.238 0-1.932-.81-2.063-2.41-.164-2 .698-4.343 2.197-5.97.954-1.036 2.03-1.606 3.03-1.606h.02c1.262.01 2.146 1.023 2.553 1.968l.021.049-.013.054zm13.84-12.732c-1.1 0-1.99.867-1.999 1.935-.008 1.074.876 1.956 1.97 1.964l.016.16v-.16c1.086 0 1.975-.868 1.983-1.934.009-1.075-.875-1.957-1.97-1.965zm69.261 0c-1.101 0-1.99.867-1.999 1.935-.009 1.074.875 1.956 1.97 1.964l.015.16v-.16c1.087 0 1.976-.868 1.984-1.934.008-1.075-.875-1.957-1.97-1.965z" fill="#010101"/><path d="M195.836 22.648a1.353 1.353 0 000 2.705 1.357 1.357 0 001.353-1.351 1.356 1.356 0 00-1.353-1.354zm0 2.51c-.64 0-1.156-.515-1.156-1.155s.516-1.157 1.156-1.157a1.155 1.155 0 110 2.312zm.6-1.51c0-.279-.138-.431-.491-.431h-.6v1.559h.196v-.683h.281l.465.683h.222l-.466-.683c.212-.037.393-.157.393-.444zm-.643.27h-.251v-.528h.349c.168 0 .35.058.35.258-.001.26-.234.27-.448.27z" fill="#020202"/></svg>