<svg width="221" height="48" viewBox="0 0 221 48" fill="none" xmlns="http://www.w3.org/2000/svg" filter="blur(10px)"><path d="M28.294 37.449c.069-.052.086-.156.051-.242A145.056 145.056 0 0010.64 8.464s-5.562 5.285-5.164 10.588a9.328 9.328 0 003.23 6.374c4.854 4.733 16.6 10.71 19.329 12.074a.24.24 0 00.259-.051zM26.48 41.49a.266.266 0 00-.26-.172l-19.553.673c2.125 3.783 5.7 6.72 9.414 5.821 2.574-.639 8.378-4.698 10.295-6.08.156-.12.104-.224.104-.242zm.294-1.744c.103-.156-.07-.294-.07-.294C18.12 33.648 1.468 24.735 1.468 24.735a11.573 11.573 0 0010.433 15.149c.294.052 11.625 0 14.665-.017a.32.32 0 00.208-.121zM28.069.017c-.846.07-3.144.605-3.144.605-5.182 1.33-6.408 6.045-6.408 6.045-.95 2.954.017 6.219.017 6.219 1.728 7.67 10.226 20.296 12.057 22.939.12.138.224.086.224.086.104-.034.19-.12.19-.242C33.839 7.48 28.07.017 28.07.017zm6.478 35.86c.103.034.224 0 .276-.104 1.883-2.712 10.33-15.27 12.057-22.904 0 0 .932-3.697.034-6.219 0 0-1.278-4.784-6.46-6.045 0 0-1.486-.38-3.075-.605 0 0-5.803 7.462-2.97 35.652-.018.104.051.19.138.225zm4.629 5.458a.345.345 0 00-.225.155c-.017.104 0 .19.07.26 1.865 1.347 7.548 5.32 10.277 6.08 0 0 5.061 1.727 9.448-5.821l-19.57-.674zm24.787-16.634s-16.617 8.93-25.219 14.734c-.086.069-.138.173-.104.276 0 0 .087.156.208.156 3.074 0 14.716.017 15.027-.035a11.257 11.257 0 003.369-.777s4.145-1.313 6.287-6.029c0 0 1.917-3.834.432-8.325zm-26.79 12.748a.234.234 0 00.258.017c2.799-1.4 14.458-7.324 19.277-12.04 0 0 3.058-2.452 3.213-6.408.346-5.476-5.165-10.554-5.165-10.554s-10.19 12.35-17.67 28.674a.345.345 0 00.086.31z" fill="#CE0E2D"/><path d="M120.16 11.736h4.905v13.646c0 6.927-3.817 10.9-10.467 10.9-6.581 0-10.364-3.904-10.364-10.71V11.753h4.905v13.663c0 4.042 1.987 6.202 5.528 6.202 3.541 0 5.493-2.108 5.493-6.029V11.736zm-27.638 9.742H81.433v-9.742h-4.906v24.183h4.906V26.09h11.072v9.829h4.906V11.736h-4.906v9.742h.017zm122.848-9.742v24.148h4.837V11.736h-4.837zm-19.26 13.767h8.931v-4.405h-8.931v-4.957h12.955v-4.388h-17.791v24.148h18.258v-4.404H196.11v-5.994zm-19.242 2.85l-5.493-16.634h-4.007l-5.493 16.634-5.338-16.617h-5.216l8.429 24.165h4.059l5.493-15.874 5.493 15.874h4.094l8.412-24.165h-5.096l-5.337 16.617zm-34.27-16.479l10.554 24.027h-5.148l-2.176-5.026h-11.072l-.156.345-2.038 4.681h-5.009l10.657-24.165h4.284l.104.138zm1.174 14.06l-3.489-8.1-3.472 8.1-.242.553h7.428l-.225-.552z" fill="#24272A"/></svg>