<svg width="119" height="48" viewBox="0 0 119 48" fill="none" xmlns="http://www.w3.org/2000/svg" filter="blur(10px)"><g clip-path="url(#clip0_81_39)" fill="#1B8473"><path d="M.098 0l9.595 3.358v33.735l13.488-7.802-6.631-3.118-4.177-10.399 21.277 7.478v10.864L9.693 47.972l-9.595-5.32V0zM64.07 25.27c-1.171-1.227-2.723-1.96-4.656-2.215V23c1.552-.522 2.78-1.369 3.654-2.582.889-1.2 1.326-2.624 1.326-4.275 0-1.961-.733-3.527-2.187-4.755-1.467-1.228-3.428-1.834-5.94-1.834H48.07v28.811h8.395c2.695 0 4.938-.762 6.702-2.286 1.763-1.524 2.652-3.527 2.652-5.982-.014-1.947-.592-3.57-1.75-4.826zM51.428 12.643h3.88c3.682 0 5.517 1.396 5.517 4.19 0 1.623-.537 2.864-1.595 3.782-1.058.888-2.497 1.326-4.374 1.326H51.4v-9.298h.028zm9.2 21.29c-1.087.932-2.625 1.398-4.615 1.398h-4.585V24.946h3.88c4.642 0 6.942 1.693 6.942 5.108.028 1.65-.536 2.948-1.623 3.88zm11.174-20.685c-.593 0-1.086-.197-1.496-.606-.423-.424-.606-.903-.606-1.524 0-.607.197-1.129.606-1.552.424-.424.903-.607 1.496-.607.607 0 1.1.198 1.552.607.423.423.635.93.635 1.552 0 .592-.226 1.086-.635 1.495-.451.41-.974.635-1.552.635zm-1.693 4.742h3.287v20.417H70.11V17.99zm25.679 20.416H92.5V26.822c0-4.374-1.467-6.547-4.656-6.547-1.65 0-3.02.607-4.092 1.863-1.072 1.255-1.622 2.793-1.622 4.684v11.584h-3.288V17.99h3.288v3.343h.07c1.552-2.596 3.782-3.823 6.632-3.823 2.257 0 3.979.733 5.15 2.187 1.199 1.453 1.791 3.555 1.791 6.307l.015 12.402zm19.809-20.416v2.85h-.071c-1.354-2.23-3.245-3.344-6.01-3.344-2.921 0-5.221 1.03-6.9 3.09-1.693 2.06-2.525 4.84-2.525 8.339 0 3.09.79 5.545 2.328 7.365 1.566 1.834 3.626 2.596 6.18 2.596 3.146 0 5.347-1.27 6.913-3.908h.071v2.229c0 5.376-2.526 8.028-7.605 8.028-3.415 0-5.644-1.495-5.644-1.495l-.86 2.821c1.918.96 3.992 1.425 6.546 1.425 7.238 0 10.85-3.78 10.85-11.33V17.99h-3.273zm0 11.118c0 2.06-.593 3.725-1.735 5.051-1.157 1.327-2.582 1.961-4.417 1.961-1.82 0-3.287-.69-4.388-2.06-1.1-1.368-1.679-3.047-1.679-5.333 0-2.68.565-4.74 1.722-6.208 1.157-1.467 2.751-2.215 4.783-2.215 1.65 0 2.92.592 4.021 1.735 1.1 1.171 1.665 2.582 1.665 4.19v2.85l.028.03z"/></g><defs><clipPath id="clip0_81_39"><path fill="#fff" transform="translate(.085)" d="M0 0h118.812v48H0z"/></clipPath></defs></svg>