<svg width="139" height="48" viewBox="0 0 139 48" fill="none" xmlns="http://www.w3.org/2000/svg" filter="blur(10px)"><path d="M124.338 23.184L130.943 41c-1.946-.283-3.892-.638-5.873-.958l-3.721-9.844-3.823 9.032c-1.876-.32-3.72-.426-5.596-.675l6.708-15.583L112.554 7h5.632l3.406 8.924L125.242 7h5.7l-6.604 16.184zM108.106 7h-5.11v30.883c1.669.107 3.406.177 5.11.39V7zm-9.525 30.529c-4.657-.319-9.316-.601-14.078-.709V7h5.214v24.792c2.99.07 5.979.317 8.864.459v5.278zM78.94 19.078v5.312h-7.126v12.077h-5.143V7h14.6v5.312h-9.456v6.766h7.126-.001zm-21.03-6.766V36.75c-1.74 0-3.511 0-5.215.07V12.312h-5.389V7h16.025v5.312h-5.422zm-16.234 12.36c-2.294 0-5.006 0-6.953.108v7.897c3.06-.213 6.118-.46 9.212-.567v5.1l-14.426 1.17V7h14.425v5.312h-9.211v7.155c2.017 0 5.11-.107 6.952-.107v5.313zm-28.889-2.975v18.558A114.72 114.72 0 007.47 41V7h4.971l6.778 19.303V7h5.215v31.804c-1.843.32-3.72.426-5.701.708l-5.946-17.815z" fill="#E50914"/></svg>